# xmcd
#
# Track frame offsets:
#	150
#	23030
#	39270
#	55135
#	79220
#	98257
#	118487
#	133925
#	149850
#	171267
#	191687
#
# Disc length: 2766 seconds
# Revision: 1
# Processed by: cddbd v1.5.2PL0 Copyright (c) Steve Scherf et al.
# Submitted via: dBpowerAMP V12.0
#
DISCID=9c0acc0b
DTITLE=Phillip Walker - I Got A Sweet Tooth
DYEAR=1998
DGENRE=Blues
TTITLE0=Drag Me Down
TTITLE1=My Name Is Misery
TTITLE2=Rub Some Good Luck On Me
TTITLE3=I Got A Sweet Tooth
TTITLE4=On My Way
TTITLE5=How Could I Be Such A Fool?
TTITLE6=I'd Rather Be Blind, Crippled And Crazy
TTITLE7=Seemed Like A Good Idea At The Time
TTITLE8=Laughin' And Clownin'
TTITLE9=It's All In Your Mind
TTITLE10=Crying For My Baby
EXTD=
EXTT0=
EXTT1=
EXTT2=
EXTT3=
EXTT4=
EXTT5=
EXTT6=
EXTT7=
EXTT8=
EXTT9=
EXTT10=
PLAYORDER=
